#N canvas 1053 430 455 302 10;
#N canvas 1099 654 346 252 snare 0;
#X obj 49 78 noise~;
#X obj 50 108 lop~ 3000;
#X obj 50 139 hip~ 1000;
#X obj 199 84 f;
#X msg 197 143 \$1 1 0 \, 0 150 1;
#X obj 198 177 vline~;
#X obj 159 42 inlet;
#X obj 239 42 inlet;
#X obj 188 217 *~;
#X obj 114 208 *~ 0.5;
#X obj 100 247 *~;
#X obj 158 270 outlet~;
#X obj 114 178 osc~ 180;
#X connect 0 0 1 0;
#X connect 1 0 2 0;
#X connect 2 0 10 0;
#X connect 3 0 4 0;
#X connect 4 0 5 0;
#X connect 5 0 8 0;
#X connect 5 0 8 1;
#X connect 6 0 3 0;
#X connect 7 0 3 1;
#X connect 8 0 10 1;
#X connect 9 0 10 0;
#X connect 10 0 11 0;
#X connect 12 0 9 0;
#X restore 116 207 pd snare;
#N canvas 1301 554 340 252 kick 0;
#X obj 58 48 inlet;
#X obj 137 49 inlet;
#X obj 58 79 bng 15 250 50 0 empty empty empty 17 7 0 10 -262144 -1
-1;
#X obj 122 105 f;
#X msg 30 133 150 \, 50 70 0;
#X obj 185 182 vline~;
#X obj 30 187 osc~;
#X msg 185 152 \$1 1 0 \, 0 100 1;
#X obj 113 226 *~;
#X obj 113 260 outlet~;
#X obj 30 160 vline~;
#X connect 0 0 2 0;
#X connect 1 0 3 1;
#X connect 2 0 4 0;
#X connect 2 0 3 0;
#X connect 3 0 7 0;
#X connect 4 0 10 0;
#X connect 5 0 8 1;
#X connect 6 0 8 0;
#X connect 7 0 5 0;
#X connect 8 0 9 0;
#X connect 10 0 6 0;
#X restore 38 207 pd kick;
#N canvas 1189 451 392 308 hats 0;
#X obj 161 38 inlet;
#X obj 214 38 inlet;
#X obj 161 66 bng 15 250 50 0 empty empty empty 17 7 0 10 -262144 -1
-1;
#X obj 161 93 f;
#X obj 264 129 t f b;
#X obj 279 178 random 10;
#X obj 279 232 + 0.7;
#X obj 279 205 / 20;
#X obj 264 268 *;
#X msg 95 132 \$1 \, 0 40 1;
#X obj 95 159 vline~;
#X obj 16 106 noise~;
#X obj 16 131 hip~ 20000;
#X obj 16 159 hip~ 10000;
#X obj 56 199 *~;
#X obj 56 228 outlet~;
#X connect 0 0 2 0;
#X connect 1 0 3 1;
#X connect 2 0 3 0;
#X connect 3 0 4 0;
#X connect 4 0 8 0;
#X connect 4 1 5 0;
#X connect 5 0 7 0;
#X connect 6 0 8 1;
#X connect 7 0 6 0;
#X connect 8 0 9 0;
#X connect 9 0 10 0;
#X connect 10 0 14 1;
#X connect 11 0 12 0;
#X connect 12 0 13 0;
#X connect 13 0 14 0;
#X connect 14 0 15 0;
#X restore 199 208 pd hats;
#X obj 38 149 select 0 1 2 3 4 5 6;
#X obj 117 264 outlet~;
#X text 174 148 0=k \, 1=s \, 2=h \, 3=ks \, 4=kh \, 5=sh \, 6=ksh
;
#X floatatom 38 109 5 0 6 0 - - -;
#X obj 38 70 inlet;
#X text 37 47 Input = selection + bang;
#X floatatom 192 106 5 0 1 0 - - -;
#X floatatom 249 106 5 0 1 0 - - -;
#X floatatom 310 106 5 0 1 0 - - -;
#X msg 316 243 0.9;
#X obj 316 210 loadbang;
#X obj 295 26 inlet;
#X obj 336 72 inlet;
#X obj 316 49 inlet;
#X text 238 3 Inputs 2 \, 3 \, 4 = Volume [0 \; 1];
#X connect 0 0 4 0;
#X connect 1 0 4 0;
#X connect 2 0 4 0;
#X connect 3 0 1 0;
#X connect 3 1 0 0;
#X connect 3 2 2 0;
#X connect 3 3 1 0;
#X connect 3 3 0 0;
#X connect 3 4 1 0;
#X connect 3 4 2 0;
#X connect 3 5 0 0;
#X connect 3 5 2 0;
#X connect 3 6 1 0;
#X connect 3 6 0 0;
#X connect 3 6 2 0;
#X connect 6 0 3 0;
#X connect 7 0 6 0;
#X connect 9 0 1 1;
#X connect 10 0 0 1;
#X connect 11 0 2 1;
#X connect 12 0 2 1;
#X connect 12 0 0 1;
#X connect 12 0 1 1;
#X connect 13 0 12 0;
#X connect 14 0 9 0;
#X connect 15 0 11 0;
#X connect 16 0 10 0;
