#N canvas 249 45 1115 866 12;
#X obj 216 156 osc~ 262;
#X obj 215 303 *~;
#X obj 231 191 bng 15 250 50 0 empty empty empty 17 7 0 10 -203904
-1 -1;
#X obj 292 218 delay 500;
#X msg 231 231 0.5 100;
#X msg 292 245 0 100;
#X obj 232 274 line~ 0 3;
#X text 257 189 Start it up;
#X floatatom 466 180 5 0 0 0 - - -;
#X text 641 210 Read from dealy buffer;
#X obj 466 242 hip~ 40;
#X obj 495 274 *~ 0.1;
#X text 250 302 "Beep";
#X obj 469 155 hsl 300 15 0 1000 0 0 empty empty delay_time -2 -8 0
10 -204800 -1 -1 10500 1;
#X text 532 240 Remove subaudio;
#X text 554 273 Attenuate output;
#X obj 483 475 osc~ 65;
#X obj 466 506 *~;
#X obj 486 393 hsl 128 15 0 120 0 0 empty empty modulator_pitch -2
-8 0 10 -261234 -1 -1 3100 1;
#X floatatom 483 447 5 0 0 0 - - -;
#X text 500 506 Ring modulation;
#X obj 467 547 clip~ -1 1;
#X text 551 547 Prevent it from blowing up;
#X obj 467 578 *~ -1;
#X text 515 578 Invert;
#X obj 467 610 expr~ $v1 - 1.0/3 * pow($v1 \, 3);
#X obj 466 741 *~;
#X text 697 610 Saturator expression;
#X obj 516 676 hsl 128 15 0 2 0 0 empty empty gain -2 -8 0 10 -262130
-1 -1 4000 1;
#X floatatom 513 706 5 0 0 0 - - -;
#X text 646 802 Write to delay buffer;
#X obj 374 473 +~;
#X obj 52 36 inlet;
#X obj 276 39 inlet;
#X obj 516 38 inlet;
#X obj 771 41 inlet;
#X obj 483 321 outlet~;
#X obj 483 418 mtof;
#X obj 466 210 delread~ feedback\$0 300;
#X obj 466 803 delwrite~ feedback\$0 1000;
#X text 49 -2 Input 1 : Create a impulsion;
#X text 274 -1 Input 2 : delay time [0 \; 1000];
#X text 514 -2 Input 3 : modular pitch [0 : 120];
#X text 772 -2 Input 4 : gain [0 \; 2];
#X text 546 319 Output;
#X text 82 577 Ring Modulation Patch;
#X connect 0 0 1 0;
#X connect 1 0 31 0;
#X connect 2 0 4 0;
#X connect 2 0 3 0;
#X connect 3 0 5 0;
#X connect 4 0 6 0;
#X connect 5 0 6 0;
#X connect 6 0 1 1;
#X connect 8 0 38 0;
#X connect 10 0 11 0;
#X connect 10 0 31 1;
#X connect 11 0 36 0;
#X connect 13 0 8 0;
#X connect 16 0 17 1;
#X connect 17 0 21 0;
#X connect 18 0 37 0;
#X connect 19 0 16 0;
#X connect 21 0 23 0;
#X connect 23 0 25 0;
#X connect 25 0 26 0;
#X connect 26 0 39 0;
#X connect 28 0 29 0;
#X connect 29 0 26 1;
#X connect 31 0 17 0;
#X connect 32 0 2 0;
#X connect 33 0 13 0;
#X connect 34 0 18 0;
#X connect 35 0 28 0;
#X connect 37 0 19 0;
#X connect 38 0 10 0;
