#N canvas 1054 374 490 300 10;
#X obj 136 218 Batterie_VDB;
#X msg 320 128 0.5;
#X msg 319 98 0;
#X msg 321 156 1;
#X msg 37 50 0;
#X msg 78 50 1;
#X msg 119 50 2;
#X msg 157 51 3;
#X obj 156 254 dac~;
#X msg 201 51 4;
#X msg 243 52 5;
#X msg 286 53 6;
#X connect 0 0 8 0;
#X connect 0 0 8 1;
#X connect 1 0 0 1;
#X connect 1 0 0 2;
#X connect 1 0 0 3;
#X connect 2 0 0 1;
#X connect 2 0 0 2;
#X connect 2 0 0 3;
#X connect 3 0 0 1;
#X connect 3 0 0 2;
#X connect 3 0 0 3;
#X connect 4 0 0 0;
#X connect 5 0 0 0;
#X connect 6 0 0 0;
#X connect 7 0 0 0;
#X connect 9 0 0 0;
#X connect 10 0 0 0;
#X connect 11 0 0 0;
